<svg xmlns="http://www.w3.org/2000/svg" viewBox="0 0 400 300" fill="none">
  <!-- Background Elements -->
  <circle cx="200" cy="150" r="120" fill="#4F46E5" fill-opacity="0.1"/>
  <circle cx="200" cy="150" r="80" fill="#3B82F6" fill-opacity="0.1"/>
  
  <!-- Code Window -->
  <rect x="100" y="80" width="200" height="140" rx="8" fill="#1E293B"/>
  <rect x="100" y="80" width="200" height="30" rx="8" fill="#374151"/>
  <circle cx="120" cy="95" r="5" fill="#EF4444"/>
  <circle cx="140" cy="95" r="5" fill="#F59E0B"/>
  <circle cx="160" cy="95" r="5" fill="#10B981"/>
  
  <!-- Code Lines -->
  <rect x="120" y="130" width="100" height="6" rx="3" fill="#4F46E5" fill-opacity="0.6"/>
  <rect x="120" y="150" width="140" height="6" rx="3" fill="#3B82F6" fill-opacity="0.6"/>
  <rect x="120" y="170" width="80" height="6" rx="3" fill="#2563EB" fill-opacity="0.6"/>
  
  <!-- Floating Elements -->
  <circle cx="340" cy="100" r="15" fill="#4F46E5" fill-opacity="0.2"/>
  <circle cx="60" cy="200" r="20" fill="#3B82F6" fill-opacity="0.2"/>
  <circle cx="320" cy="220" r="25" fill="#2563EB" fill-opacity="0.2"/>
  
  <!-- Connection Lines -->
  <path d="M320 100 Q360 150 320 200" stroke="#4F46E5" stroke-width="2" stroke-dasharray="4 4"/>
  <path d="M80 180 Q120 150 160 180" stroke="#3B82F6" stroke-width="2" stroke-dasharray="4 4"/>
  
  <!-- Decorative Dots -->
  <circle cx="350" cy="80" r="3" fill="#4F46E5"/>
  <circle cx="360" cy="90" r="2" fill="#3B82F6"/>
  <circle cx="340" cy="90" r="2" fill="#2563EB"/>
  <circle cx="50" cy="180" r="3" fill="#4F46E5"/>
  <circle cx="60" cy="190" r="2" fill="#3B82F6"/>
  <circle cx="40" cy="190" r="2" fill="#2563EB"/>
</svg> 